<svg width="18" height="14" viewBox="0 0 18 14" fill="none" xmlns="http://www.w3.org/2000/svg">
<path d="M16.7143 0.571289H1.28571C0.944722 0.571289 0.617695 0.706748 0.376577 0.947866C0.135459 1.18898 0 1.51601 0 1.857V12.1427C0 12.4837 0.135459 12.8107 0.376577 13.0519C0.617695 13.293 0.944722 13.4284 1.28571 13.4284H16.7143C17.0553 13.4284 17.3823 13.293 17.6234 13.0519C17.8645 12.8107 18 12.4837 18 12.1427V1.857C18 1.51601 17.8645 1.18898 17.6234 0.947866C17.3823 0.706748 17.0553 0.571289 16.7143 0.571289ZM15.3 1.857L9 6.21557L2.7 1.857H15.3ZM1.28571 12.1427V2.442L8.63357 7.527C8.74118 7.60166 8.86903 7.64166 9 7.64166C9.13097 7.64166 9.25882 7.60166 9.36643 7.527L16.7143 2.442V12.1427H1.28571Z" fill="white" fill-opacity="0.8"/>
</svg>
