<svg width="257" height="83" viewBox="0 0 257 83" fill="none" xmlns="http://www.w3.org/2000/svg">
<path d="M24.6814 38.0079C18.9666 42.5685 11.4342 54.5727 19.3264 61.5538C45.5871 79.684 97.6133 47.9141 98.174 30.9755C98.5385 19.9712 87.0576 17.0881 76.4365 16.6022C91.749 15.191 106.809 21.0833 103.365 34.952C94.0667 58.0399 55.3438 72.5113 36.1996 71.9506C-2.73821 69.96 16.6256 43.6619 24.6814 38.0079Z" fill="#222222"/>
<path d="M90.2818 41.1714C95.6788 29.7979 89.9547 24.985 81.8101 23.0178L82.8428 19.032C104.538 23.1907 92.3098 41.4471 90.2818 41.1714Z" fill="#222222"/>
<path d="M29.9569 35.251L30.6391 39.5032C25.6673 44.1199 22.6628 49.3066 23.3029 54.6241C24.7468 61.3996 33.8399 64.2406 42.2134 64.7266C31.4615 66.563 3.23355 58.0586 29.9569 35.251Z" fill="#222222"/>
<path d="M40.835 50.4701L45.6432 29.7652L50.7972 50.4701H59.8156L64.5771 29.9521L69.1377 50.4701H79.3943L71.1703 17.5741H61.2548L55.755 38.4612L50.3019 17.5741H39.6948L31.4147 50.4701H40.835Z" fill="#222222"/>
<path d="M117.075 43.0276L113.399 32.4414H113.33C113.428 34.0136 113.477 35.4875 113.477 36.8632V43.0276H111.596V30.3519H114.517L118.037 40.4352H118.09L121.714 30.3519H124.644V43.0276H122.65V36.7591C122.65 36.1291 122.664 35.3083 122.693 34.2968C122.728 33.2853 122.757 32.6726 122.78 32.4587H122.711L118.904 43.0276H117.075ZM129.803 43.0276H127.765V33.4385H129.803V43.0276ZM127.644 30.8981C127.644 30.534 127.742 30.2536 127.939 30.0571C128.141 29.8606 128.427 29.7623 128.797 29.7623C129.155 29.7623 129.433 29.8606 129.629 30.0571C129.832 30.2536 129.933 30.534 129.933 30.8981C129.933 31.2449 129.832 31.5195 129.629 31.7218C129.433 31.9183 129.155 32.0166 128.797 32.0166C128.427 32.0166 128.141 31.9183 127.939 31.7218C127.742 31.5195 127.644 31.2449 127.644 30.8981ZM141.161 43.0276H139.114V37.1319C139.114 36.3921 138.964 35.8401 138.664 35.4759C138.369 35.1118 137.898 34.9297 137.25 34.9297C136.389 34.9297 135.759 35.184 135.36 35.6927C134.962 36.2013 134.762 37.0539 134.762 38.2504V43.0276H132.725V33.4385H134.32L134.606 34.6956H134.71C134.999 34.239 135.409 33.8864 135.941 33.6379C136.473 33.3893 137.063 33.2651 137.71 33.2651C140.01 33.2651 141.161 34.4355 141.161 36.7764V43.0276ZM152.432 43.0276H150.386V37.1319C150.386 36.3921 150.235 35.8401 149.935 35.4759C149.64 35.1118 149.169 34.9297 148.522 34.9297C147.66 34.9297 147.03 35.184 146.631 35.6927C146.233 36.2013 146.033 37.0539 146.033 38.2504V43.0276H143.996V33.4385H145.591L145.877 34.6956H145.981C146.27 34.239 146.681 33.8864 147.212 33.6379C147.744 33.3893 148.334 33.2651 148.981 33.2651C151.282 33.2651 152.432 34.4355 152.432 36.7764V43.0276ZM163.772 38.2157C163.772 39.7821 163.371 41.0046 162.567 41.8831C161.764 42.7617 160.645 43.201 159.212 43.201C158.316 43.201 157.524 42.9987 156.836 42.5941C156.148 42.1895 155.619 41.6086 155.25 40.8514C154.88 40.0942 154.695 39.2156 154.695 38.2157C154.695 36.6608 155.093 35.447 155.891 34.5742C156.689 33.7015 157.813 33.2651 159.264 33.2651C160.651 33.2651 161.749 33.713 162.558 34.6089C163.368 35.4991 163.772 36.7013 163.772 38.2157ZM156.793 38.2157C156.793 40.4295 157.611 41.5363 159.246 41.5363C160.865 41.5363 161.674 40.4295 161.674 38.2157C161.674 36.025 160.859 34.9297 159.229 34.9297C158.374 34.9297 157.752 35.2129 157.365 35.7794C156.984 36.3458 156.793 37.1579 156.793 38.2157ZM168.307 43.0276L164.665 33.4385H166.815L168.766 39.0133C169.101 39.9497 169.304 40.7069 169.373 41.2849H169.443C169.495 40.8687 169.697 40.1115 170.049 39.0133L172 33.4385H174.168L170.509 43.0276H168.307ZM181.624 43.0276L181.217 41.6924H181.147C180.685 42.2762 180.219 42.675 179.751 42.8889C179.283 43.097 178.682 43.201 177.948 43.201C177.006 43.201 176.269 42.9467 175.737 42.438C175.211 41.9294 174.948 41.2098 174.948 40.2792C174.948 39.2908 175.315 38.5451 176.049 38.0423C176.783 37.5394 177.902 37.2649 179.404 37.2186L181.06 37.1666V36.6551C181.06 36.0424 180.916 35.5858 180.627 35.2852C180.344 34.9788 179.902 34.8257 179.3 34.8257C178.809 34.8257 178.338 34.8979 177.887 35.0424C177.436 35.1869 177.003 35.3574 176.587 35.554L175.928 34.0974C176.448 33.8257 177.017 33.6205 177.636 33.4818C178.254 33.3373 178.838 33.2651 179.387 33.2651C180.607 33.2651 181.526 33.5309 182.144 34.0627C182.768 34.5945 183.081 35.4297 183.081 36.5684V43.0276H181.624ZM178.589 41.6404C179.329 41.6404 179.922 41.4352 180.367 41.0248C180.818 40.6086 181.043 40.0277 181.043 39.2821V38.4498L179.812 38.5018C178.852 38.5365 178.153 38.6983 177.714 38.9873C177.28 39.2705 177.064 39.7069 177.064 40.2965C177.064 40.7242 177.191 41.0566 177.445 41.2936C177.699 41.5248 178.081 41.6404 178.589 41.6404ZM189.496 41.5537C189.994 41.5537 190.491 41.4756 190.988 41.3196V42.8542C190.762 42.9525 190.47 43.0334 190.112 43.097C189.759 43.1663 189.392 43.201 189.011 43.201C187.08 43.201 186.115 42.1837 186.115 40.1491V34.9817H184.806V34.08L186.21 33.3344L186.904 31.3056H188.161V33.4385H190.892V34.9817H188.161V40.1144C188.161 40.6057 188.283 40.9699 188.525 41.2069C188.774 41.4381 189.098 41.5537 189.496 41.5537ZM194.95 43.0276H192.912V33.4385H194.95V43.0276ZM192.791 30.8981C192.791 30.534 192.889 30.2536 193.086 30.0571C193.288 29.8606 193.574 29.7623 193.944 29.7623C194.303 29.7623 194.58 29.8606 194.777 30.0571C194.979 30.2536 195.08 30.534 195.08 30.8981C195.08 31.2449 194.979 31.5195 194.777 31.7218C194.58 31.9183 194.303 32.0166 193.944 32.0166C193.574 32.0166 193.288 31.9183 193.086 31.7218C192.889 31.5195 192.791 31.2449 192.791 30.8981ZM206.377 38.2157C206.377 39.7821 205.975 41.0046 205.172 41.8831C204.369 42.7617 203.25 43.201 201.817 43.201C200.921 43.201 200.129 42.9987 199.441 42.5941C198.753 42.1895 198.224 41.6086 197.854 40.8514C197.485 40.0942 197.3 39.2156 197.3 38.2157C197.3 36.6608 197.698 35.447 198.496 34.5742C199.294 33.7015 200.418 33.2651 201.869 33.2651C203.256 33.2651 204.354 33.713 205.163 34.6089C205.973 35.4991 206.377 36.7013 206.377 38.2157ZM199.398 38.2157C199.398 40.4295 200.216 41.5363 201.851 41.5363C203.47 41.5363 204.279 40.4295 204.279 38.2157C204.279 36.025 203.464 34.9297 201.834 34.9297C200.979 34.9297 200.357 35.2129 199.97 35.7794C199.588 36.3458 199.398 37.1579 199.398 38.2157ZM217.163 43.0276H215.117V37.1319C215.117 36.3921 214.966 35.8401 214.666 35.4759C214.371 35.1118 213.9 34.9297 213.253 34.9297C212.391 34.9297 211.761 35.184 211.362 35.6927C210.964 36.2013 210.764 37.0539 210.764 38.2504V43.0276H208.727V33.4385H210.322L210.608 34.6956H210.712C211.001 34.239 211.412 33.8864 211.943 33.6379C212.475 33.3893 213.065 33.2651 213.712 33.2651C216.013 33.2651 217.163 34.4355 217.163 36.7764V43.0276Z" fill="#222222"/>
<path d="M113.582 56.2498H113.112V50.0164H110.944V49.5784H115.749V50.0164H113.582V56.2498ZM120.39 56.2498H116.744V49.5784H120.39V50.0073H117.21V52.5308H120.212V52.9597H117.21V55.8208H120.39V56.2498ZM124.748 49.9024C123.912 49.9024 123.253 50.1701 122.772 50.7055C122.292 51.2409 122.051 51.9741 122.051 52.9049C122.051 53.8571 122.278 54.5964 122.731 55.1227C123.184 55.649 123.832 55.9121 124.675 55.9121C125.235 55.9121 125.749 55.8406 126.217 55.6976V56.1083C125.776 56.2635 125.226 56.341 124.566 56.341C123.629 56.341 122.891 56.0384 122.352 55.433C121.814 54.8276 121.545 53.9819 121.545 52.8958C121.545 52.2174 121.673 51.6196 121.928 51.1025C122.187 50.5853 122.556 50.1868 123.037 49.9069C123.521 49.624 124.082 49.4825 124.721 49.4825C125.372 49.4825 125.954 49.6042 126.468 49.8476L126.281 50.2674C125.795 50.024 125.284 49.9024 124.748 49.9024ZM132.538 56.2498H132.068V52.9688H128.171V56.2498H127.705V49.5784H128.171V52.5399H132.068V49.5784H132.538V56.2498ZM139.282 56.2498H138.812L134.86 50.3267H134.824C134.86 51.0325 134.878 51.5649 134.878 51.9239V56.2498H134.431V49.5784H134.897L138.844 55.4923H138.871C138.844 54.9447 138.83 54.4245 138.83 53.9317V49.5784H139.282V56.2498ZM146.784 52.9049C146.784 53.9636 146.519 54.8017 145.99 55.4193C145.461 56.0338 144.73 56.341 143.8 56.341C142.872 56.341 142.143 56.0338 141.614 55.4193C141.084 54.8017 140.82 53.9606 140.82 52.8958C140.82 51.8341 141.086 50.999 141.618 50.3906C142.154 49.7791 142.884 49.4734 143.809 49.4734C144.74 49.4734 145.468 49.7807 145.994 50.3952C146.521 51.0067 146.784 51.8432 146.784 52.9049ZM141.326 52.9049C141.326 53.8602 141.539 54.5994 141.965 55.1227C142.391 55.6429 143.002 55.903 143.8 55.903C144.603 55.903 145.216 55.6444 145.638 55.1272C146.064 54.6101 146.277 53.8693 146.277 52.9049C146.277 51.9436 146.064 51.2074 145.638 50.6964C145.216 50.1822 144.606 49.9252 143.809 49.9252C143.015 49.9252 142.402 50.1838 141.97 50.7009C141.541 51.2181 141.326 51.9528 141.326 52.9049ZM148.322 56.2498V49.5784H148.787V55.8117H151.968V56.2498H148.322ZM158.73 52.9049C158.73 53.9636 158.466 54.8017 157.936 55.4193C157.407 56.0338 156.677 56.341 155.746 56.341C154.818 56.341 154.09 56.0338 153.56 55.4193C153.031 54.8017 152.766 53.9606 152.766 52.8958C152.766 51.8341 153.032 50.999 153.565 50.3906C154.1 49.7791 154.83 49.4734 155.755 49.4734C156.686 49.4734 157.415 49.7807 157.941 50.3952C158.467 51.0067 158.73 51.8432 158.73 52.9049ZM153.273 52.9049C153.273 53.8602 153.486 54.5994 153.912 55.1227C154.337 55.6429 154.949 55.903 155.746 55.903C156.549 55.903 157.162 55.6444 157.585 55.1272C158.011 54.6101 158.224 53.8693 158.224 52.9049C158.224 51.9436 158.011 51.2074 157.585 50.6964C157.162 50.1822 156.552 49.9252 155.755 49.9252C154.961 49.9252 154.348 50.1838 153.916 50.7009C153.487 51.2181 153.273 51.9528 153.273 52.9049ZM162.892 52.8867H165.352V55.9304C164.707 56.2041 163.981 56.341 163.175 56.341C162.122 56.341 161.315 56.0444 160.752 55.4512C160.192 54.855 159.912 54.0123 159.912 52.9232C159.912 52.2448 160.051 51.644 160.327 51.1207C160.607 50.5944 161.006 50.1883 161.523 49.9024C162.043 49.6164 162.639 49.4734 163.312 49.4734C164.039 49.4734 164.691 49.6073 165.269 49.875L165.082 50.2948C164.504 50.0271 163.905 49.8932 163.284 49.8932C162.405 49.8932 161.707 50.1655 161.19 50.71C160.676 51.2515 160.419 51.9832 160.419 52.9049C160.419 53.9089 160.664 54.6648 161.153 55.1729C161.643 55.6779 162.363 55.9304 163.312 55.9304C163.926 55.9304 164.448 55.8437 164.877 55.6703V53.3248H162.892V52.8867ZM167.031 56.2498V49.5784H167.496V56.2498H167.031ZM173.031 56.2498H169.385V49.5784H173.031V50.0073H169.851V52.5308H172.853V52.9597H169.851V55.8208H173.031V56.2498ZM178.224 54.5294C178.224 55.0862 178.019 55.5273 177.608 55.8528C177.201 56.1783 176.658 56.341 175.979 56.341C175.164 56.341 174.539 56.2513 174.104 56.0718V55.6064C174.584 55.8102 175.197 55.9121 175.943 55.9121C176.49 55.9121 176.924 55.7874 177.243 55.5379C177.566 55.2854 177.727 54.9553 177.727 54.5477C177.727 54.2952 177.674 54.0868 177.567 53.9225C177.461 53.7552 177.287 53.6031 177.047 53.4662C176.807 53.3293 176.454 53.1818 175.988 53.0236C175.307 52.7893 174.835 52.5368 174.574 52.2661C174.315 51.9923 174.186 51.6288 174.186 51.1755C174.186 50.6766 174.381 50.2705 174.77 49.9571C175.162 49.6407 175.666 49.4825 176.28 49.4825C176.907 49.4825 177.496 49.6012 178.046 49.8385L177.878 50.24C177.324 50.0088 176.795 49.8932 176.29 49.8932C175.797 49.8932 175.404 50.0073 175.112 50.2355C174.82 50.4636 174.674 50.7739 174.674 51.1664C174.674 51.4128 174.718 51.6151 174.807 51.7733C174.898 51.9315 175.045 52.0744 175.249 52.2022C175.453 52.3269 175.803 52.4775 176.299 52.654C176.819 52.8335 177.21 53.0084 177.471 53.1787C177.733 53.3461 177.923 53.5377 178.042 53.7537C178.164 53.9667 178.224 54.2252 178.224 54.5294Z" fill="#222222"/>
</svg>
