<svg width="16" height="21" viewBox="0 0 16 21" fill="none" xmlns="http://www.w3.org/2000/svg">
<path d="M1.571 5.88709C1.2845 4.00009 2.615 2.30509 4.6475 1.68409C5.00818 1.57381 5.39734 1.6052 5.73569 1.77187C6.07403 1.93853 6.3361 2.22792 6.4685 2.58109L7.121 4.32109C7.22604 4.60101 7.24503 4.90593 7.17554 5.19672C7.10605 5.48751 6.95125 5.7509 6.731 5.95309L4.79 7.73059C4.69432 7.81839 4.62303 7.92948 4.58307 8.05303C4.54311 8.17659 4.53585 8.30839 4.562 8.43559L4.58 8.51359L4.6265 8.70859C4.86789 9.65606 5.23569 10.5667 5.72 11.4161C6.24756 12.3186 6.90228 13.1406 7.664 13.8566L7.724 13.9106C7.8209 13.9966 7.93843 14.056 8.06514 14.0831C8.19184 14.1102 8.32341 14.104 8.447 14.0651L10.9565 13.2746C11.2417 13.185 11.5471 13.1828 11.8337 13.268C12.1202 13.3533 12.3747 13.5222 12.5645 13.7531L13.7525 15.1946C14.2475 15.7946 14.1875 16.6766 13.619 17.2061C12.0635 18.6566 9.9245 18.9536 8.4365 17.7581C6.61254 16.2868 5.07493 14.4924 3.9005 12.4646C2.71653 10.4383 1.92569 8.20673 1.5695 5.88709H1.571ZM6.1355 8.53459L7.7435 7.05859C8.18425 6.65439 8.49415 6.12769 8.6334 5.5461C8.77265 4.96451 8.7349 4.35457 8.525 3.79459L7.874 2.05459C7.60751 1.34396 7.0801 0.761678 6.39922 0.426396C5.71835 0.0911134 4.93525 0.0280613 4.2095 0.250087C1.685 1.02259 -0.341502 3.28609 0.0874983 6.11359C0.387498 8.08759 1.079 10.5986 2.6045 13.2206C3.87157 15.4071 5.53018 17.3419 7.4975 18.9281C9.7295 20.7206 12.7085 20.1086 14.6435 18.3056C15.1972 17.7901 15.5332 17.0827 15.5831 16.3278C15.633 15.573 15.393 14.8275 14.912 14.2436L13.724 12.8006C13.344 12.3393 12.8348 12.0021 12.2618 11.8321C11.6888 11.6621 11.0781 11.6672 10.508 11.8466L8.4245 12.5021C7.88655 11.9474 7.41535 11.3317 7.0205 10.6676C6.63908 9.99613 6.34184 9.28024 6.1355 8.53609V8.53459Z" fill="white" fill-opacity="0.8"/>
</svg>
